<?xml version="1.0" standalone="no"?>
<!DOCTYPE svg PUBLIC "-//W3C//DTD SVG 20010904//EN"
 "http://www.w3.org/TR/2001/REC-SVG-20010904/DTD/svg10.dtd">
<svg version="1.0" xmlns="http://www.w3.org/2000/svg"
 width="626.000000pt" height="626.000000pt" viewBox="0 0 626.000000 626.000000"
 preserveAspectRatio="xMidYMid meet">

<g transform="translate(0.000000,626.000000) scale(0.100000,-0.100000)"
fill="#000000" stroke="none">
<path d="M3101 4332 c-59 -62 -85 -124 -89 -215 -3 -58 0 -90 14 -125 17 -45
413 -712 439 -741 11 -11 20 -7 54 24 80 73 119 208 92 321 -13 53 -436 764
-459 772 -7 2 -30 -14 -51 -36z"/>
<path d="M2743 3994 c-27 -27 -60 -71 -73 -98 -31 -64 -39 -176 -17 -240 17
-50 727 -1245 740 -1246 19 0 99 87 122 135 33 66 43 171 22 236 -11 38 -640
1105 -723 1228 l-23 33 -48 -48z"/>
<path d="M2768 2978 c-72 -71 -93 -126 -93 -239 l0 -95 225 -377 c124 -207
229 -376 234 -377 5 0 31 22 57 49 83 86 112 220 71 328 -16 41 -419 723 -442
747 -5 4 -28 -11 -52 -36z"/>
<path d="M762 535 c0 -16 2 -22 5 -12 2 9 2 23 0 30 -3 6 -5 -1 -5 -18z"/>
<path d="M952 530 c0 -14 2 -19 5 -12 2 6 2 18 0 25 -3 6 -5 1 -5 -13z"/>
<path d="M1265 539 c-4 -6 -5 -12 -2 -15 2 -3 7 2 10 11 7 17 1 20 -8 4z"/>
<path d="M5092 530 c0 -14 2 -19 5 -12 2 6 2 18 0 25 -3 6 -5 1 -5 -13z"/>
<path d="M5572 530 c0 -14 2 -19 5 -12 2 6 2 18 0 25 -3 6 -5 1 -5 -13z"/>
<path d="M881 524 c0 -11 3 -14 6 -6 3 7 2 16 -1 19 -3 4 -6 -2 -5 -13z"/>
<path d="M1792 435 c0 -16 2 -22 5 -12 2 9 2 23 0 30 -3 6 -5 -1 -5 -18z"/>
<path d="M2831 444 c0 -11 3 -14 6 -6 3 7 2 16 -1 19 -3 4 -6 -2 -5 -13z"/>
<path d="M1082 430 c0 -14 2 -19 5 -12 2 6 2 18 0 25 -3 6 -5 1 -5 -13z"/>
<path d="M1366 434 c-3 -9 -4 -19 -1 -22 3 -3 5 1 5 9 0 11 2 11 10 -1 5 -8
10 -10 10 -5 0 6 -4 16 -9 23 -6 11 -10 10 -15 -4z"/>
<path d="M1652 430 c0 -14 2 -19 5 -12 2 6 2 18 0 25 -3 6 -5 1 -5 -13z"/>
<path d="M2012 430 c0 -14 2 -19 5 -12 2 6 2 18 0 25 -3 6 -5 1 -5 -13z"/>
<path d="M2572 430 c0 -14 2 -19 5 -12 2 6 2 18 0 25 -3 6 -5 1 -5 -13z"/>
<path d="M2924 430 c0 -9 5 -17 11 -17 6 0 11 8 11 17 0 9 -5 17 -11 17 -6 0
-11 -8 -11 -17z"/>
<path d="M3502 430 c0 -14 2 -19 5 -12 2 6 2 18 0 25 -3 6 -5 1 -5 -13z"/>
<path d="M3662 430 c0 -14 2 -19 5 -12 2 6 2 18 0 25 -3 6 -5 1 -5 -13z"/>
<path d="M4954 430 c0 -9 5 -17 11 -17 6 0 11 8 11 17 0 9 -5 17 -11 17 -6 0
-11 -8 -11 -17z"/>
<path d="M741 424 c0 -11 3 -14 6 -6 3 7 2 16 -1 19 -3 4 -6 -2 -5 -13z"/>
<path d="M2552 330 c0 -14 2 -19 5 -12 2 6 2 18 0 25 -3 6 -5 1 -5 -13z"/>
<path d="M3032 330 c0 -14 2 -19 5 -12 2 6 2 18 0 25 -3 6 -5 1 -5 -13z"/>
<path d="M4002 330 c0 -14 2 -19 5 -12 2 6 2 18 0 25 -3 6 -5 1 -5 -13z"/>
<path d="M4292 330 c0 -14 2 -19 5 -12 2 6 2 18 0 25 -3 6 -5 1 -5 -13z"/>
<path d="M3651 324 c0 -11 3 -14 6 -6 3 7 2 16 -1 19 -3 4 -6 -2 -5 -13z"/>
</g>
</svg>
